<?xml version="1.0" encoding="iso-8859-1"?>
<!-- Generator: Adobe Illustrator 19.0.0, SVG Export Plug-In . SVG Version: 6.00 Build 0)  -->
<svg xmlns="http://www.w3.org/2000/svg" xmlns:xlink="http://www.w3.org/1999/xlink" version="1.1" id="Layer_1" x="0px" y="0px" viewBox="0 0 467.837 467.837" style="enable-background:new 0 0 467.837 467.837;" xml:space="preserve" width="512px" height="512px">
<g>
	<rect x="188.418" y="244.837" width="92" height="93" fill="#64B5B7"/>
	<path d="M440.418,244.837V86.003c0-47.422-38.578-86.003-86-86.003c-47.422,0-86,38.581-86,86.003v11.834h-31v30h92v-30h-31V86.003   c0-30.88,25.12-56.003,56-56.003c30.88,0,56,25.123,56,56.003v158.834h-100v123h-152v-123h-152v30h22v52.533   c0,53.5,39.452,97.615,91,104.521v35.783h30v-34.837h170v35h30V431.89c51.548-6.906,91-51.021,91-104.521v-52.533h21v-30H440.418z" fill="#64B5B7"/>
</g>
<g>
</g>
<g>
</g>
<g>
</g>
<g>
</g>
<g>
</g>
<g>
</g>
<g>
</g>
<g>
</g>
<g>
</g>
<g>
</g>
<g>
</g>
<g>
</g>
<g>
</g>
<g>
</g>
<g>
</g>
</svg>
